<svg width="78" height="79" viewBox="0 0 78 79" fill="none" xmlns="http://www.w3.org/2000/svg">
<path d="M72.3725 44.1765C69.714 44.8826 66.975 45.24 64.2243 45.2397C55.8485 45.2397 47.9828 41.9835 42.0746 36.0754C38.1949 32.1732 35.4056 27.3224 33.9849 22.0064C32.5642 16.6903 32.5616 11.0948 33.9774 5.77743C34.1542 5.1126 34.1531 4.41295 33.9741 3.74869C33.7952 3.08443 33.4447 2.4789 32.9578 1.99285C32.471 1.50679 31.8649 1.15731 31.2003 0.97945C30.5358 0.80159 29.8361 0.80161 29.1716 0.979507C22.5148 2.75346 16.4415 6.24673 11.5609 11.1089C-3.73124 26.401 -3.73124 51.293 11.5609 66.593C15.1958 70.2481 19.5194 73.146 24.2816 75.119C29.0439 77.0921 34.1501 78.1011 39.3049 78.0876C44.4583 78.1021 49.5634 77.0939 54.3244 75.1215C59.0854 73.149 63.4077 70.2516 67.0411 66.5969C71.9069 61.7154 75.4018 55.6389 77.1744 48.9784C77.3505 48.3138 77.349 47.6147 77.1701 46.9509C76.9913 46.287 76.6413 45.6818 76.1552 45.1957C75.6691 44.7096 75.0638 44.3596 74.4 44.1807C73.7362 44.0019 73.0371 44.0004 72.3725 44.1765ZM61.4978 61.0497C58.5906 63.9727 55.1327 66.2902 51.3239 67.868C47.5152 69.4457 43.4314 70.2525 39.3088 70.2414C35.1849 70.2517 31.0998 69.4443 27.2898 67.8659C23.4798 66.2875 20.0206 63.9694 17.1121 61.0457C4.87991 48.8097 4.87991 28.8961 17.1121 16.66C19.4757 14.299 22.2046 12.3345 25.1936 10.8421C24.7561 16.4877 25.5426 22.1611 27.4993 27.4747C29.456 32.7884 32.5369 37.6169 36.5313 41.6304C40.536 45.6374 45.3631 48.7267 50.679 50.685C55.9948 52.6432 61.6726 53.4235 67.3196 52.972C65.8191 55.956 63.854 58.6825 61.4978 61.0497Z" fill="#F1C40F"/>
</svg>
